<?xml version="1.0" encoding="utf-8"?>
<!-- Generator: Adobe Illustrator 25.0.1, SVG Export Plug-In . SVG Version: 6.00 Build 0)  -->
<svg version="1.1" id="Layer_1" xmlns="http://www.w3.org/2000/svg" xmlns:xlink="http://www.w3.org/1999/xlink" x="0px" y="0px"
	 viewBox="0 0 138.53 50" style="enable-background:new 0 0 138.53 50;" xml:space="preserve">
<style type="text/css">
	.auth0-login0{fill-rule:evenodd;clip-rule:evenodd;fill:#333333;}
	.auth0-login1{fill:#E95424;}
</style>
<g>
	<path class="auth0-login0" d="M68.76,27.55h-6.04c-0.04,0-0.09-0.02-0.11-0.06c-0.03-0.03-0.03-0.08-0.02-0.12l3.02-10.42
		c0.02-0.06,0.07-0.1,0.14-0.1c0.06,0,0.12,0.04,0.14,0.1l3.02,10.42c0.01,0.04,0,0.09-0.02,0.12
		C68.85,27.53,68.81,27.55,68.76,27.55z M71.57,36.58h3.94l-5.99-20.65c-0.48-1.66-2.03-2.81-3.77-2.81c-1.74,0-3.29,1.16-3.77,2.81
		l-5.99,20.65h3.94l1.73-5.98c0.02-0.06,0.07-0.1,0.14-0.1h7.91c0.06,0,0.12,0.04,0.14,0.1L71.57,36.58z M93.69,24.72h2.3
		c0.08,0,0.14,0.06,0.14,0.14V33c0,2.14,1.76,3.88,3.93,3.88c0.78,0,1.56-0.11,2.3-0.33v-2.67c-0.43,0.04-0.93,0.06-1.29,0.06
		c-0.64,0-1.16-0.51-1.16-1.15v-7.94c0-0.08,0.06-0.14,0.14-0.14h2.3v-2.94h-2.3c-0.08,0-0.14-0.06-0.14-0.14v-4.89h-3.78v4.89
		c0,0.08-0.06,0.14-0.14,0.14h-2.3V24.72z M115.51,36.58h3.78V26.35c0-2.69-2.22-4.89-4.94-4.89c-2.01,0-3.62,0.85-4.4,1.36
		c-0.04,0.03-0.1,0.03-0.14,0.01c-0.05-0.02-0.07-0.07-0.07-0.12v-9.29h-3.78v23.15h3.78V25.51c0-0.05,0.03-0.1,0.08-0.12
		c0.71-0.36,2.12-0.97,3.52-0.97c0.58,0,1.13,0.22,1.54,0.63c0.41,0.41,0.64,0.95,0.64,1.52L115.51,36.58L115.51,36.58z
		 M77.62,21.77V32c0,2.69,2.22,4.89,4.94,4.89c2.38,0,4.17-1.17,4.83-1.67c0.04-0.03,0.08-0.04,0.13-0.02
		c0.04,0.01,0.08,0.05,0.09,0.09l0.4,1.29h2.95v-14.8h-3.78v11.07c0,0.05-0.03,0.1-0.08,0.12c-0.71,0.36-2.12,0.97-3.52,0.97
		c-1.2,0-2.17-0.96-2.17-2.15V21.77H77.62z M130.36,33.94c-1.16,0-2.08-0.65-2.81-1.99c-0.88-1.62-1.36-4.09-1.36-6.95
		s0.48-5.33,1.36-6.95c0.73-1.34,1.65-1.99,2.81-1.99c1.16,0,2.08,0.65,2.81,1.99c0.88,1.62,1.36,4.08,1.36,6.95
		s-0.48,5.33-1.36,6.95C132.44,33.29,131.52,33.94,130.36,33.94z M130.36,13.12c-2.43,0-4.49,1.13-5.95,3.28
		c-1.45,2.13-2.22,5.11-2.22,8.6s0.77,6.47,2.22,8.6c1.46,2.14,3.52,3.28,5.95,3.28s4.49-1.13,5.95-3.28
		c1.45-2.13,2.22-5.11,2.22-8.6s-0.77-6.47-2.22-8.6C134.85,14.25,132.79,13.12,130.36,13.12z"/>
	<path id="NEW_4_" class="auth0-login1" d="M43.63,15.45L38.61,0H22.36l5.02,15.45H43.63z M22.36,0H6.12L1.1,15.45h16.25L22.36,0z M1.1,15.45
		L1.1,15.45L1.1,15.45L1.1,15.45z M1.1,15.45L1.1,15.45L1.1,15.45c-2.99,9.21,0.29,19.31,8.12,25L14.24,25L1.1,15.45z M43.63,15.45
		L43.63,15.45L30.49,25l5.02,15.45l0,0C43.34,34.76,46.62,24.66,43.63,15.45z M9.22,40.45L9.22,40.45L22.36,50l13.14-9.55
		L22.36,30.9L9.22,40.45z"/>
</g>
</svg>
