<svg xmlns="http://www.w3.org/2000/svg" xml:space="preserve" viewBox="0 0 138.53 50">
  <path fill="#333" fill-rule="evenodd" d="M68.76 27.55h-6.04c-.04 0-.09-.02-.11-.06-.03-.03-.03-.08-.02-.12l3.02-10.42c.02-.06.07-.1.14-.1.06 0 .12.04.14.1l3.02 10.42c.01.04 0 .09-.02.12-.04.04-.08.06-.13.06zm2.81 9.03h3.94l-5.99-20.65c-.48-1.66-2.03-2.81-3.77-2.81-1.74 0-3.29 1.16-3.77 2.81l-5.99 20.65h3.94l1.73-5.98c.02-.06.07-.1.14-.1h7.91c.06 0 .12.04.14.1l1.72 5.98zm22.12-11.86h2.3c.08 0 .14.06.14.14V33c0 2.14 1.76 3.88 3.93 3.88.78 0 1.56-.11 2.3-.33v-2.67c-.43.04-.93.06-1.29.06-.64 0-1.16-.51-1.16-1.15v-7.94c0-.08.06-.14.14-.14h2.3v-2.94h-2.3c-.08 0-.14-.06-.14-.14v-4.89h-3.78v4.89c0 .08-.06.14-.14.14h-2.3v2.95zm21.82 11.86h3.78V26.35c0-2.69-2.22-4.89-4.94-4.89-2.01 0-3.62.85-4.4 1.36-.04.03-.1.03-.14.01-.05-.02-.07-.07-.07-.12v-9.29h-3.78v23.15h3.78V25.51c0-.05.03-.1.08-.12.71-.36 2.12-.97 3.52-.97.58 0 1.13.22 1.54.63.41.41.64.95.64 1.52l-.01 10.01zM77.62 21.77V32c0 2.69 2.22 4.89 4.94 4.89 2.38 0 4.17-1.17 4.83-1.67.04-.03.08-.04.13-.02.04.01.08.05.09.09l.4 1.29h2.95v-14.8h-3.78v11.07c0 .05-.03.1-.08.12-.71.36-2.12.97-3.52.97-1.2 0-2.17-.96-2.17-2.15V21.77h-3.79zm52.74 12.17c-1.16 0-2.08-.65-2.81-1.99-.88-1.62-1.36-4.09-1.36-6.95s.48-5.33 1.36-6.95c.73-1.34 1.65-1.99 2.81-1.99 1.16 0 2.08.65 2.81 1.99.88 1.62 1.36 4.08 1.36 6.95s-.48 5.33-1.36 6.95c-.73 1.34-1.65 1.99-2.81 1.99zm0-20.82c-2.43 0-4.49 1.13-5.95 3.28-1.45 2.13-2.22 5.11-2.22 8.6s.77 6.47 2.22 8.6c1.46 2.14 3.52 3.28 5.95 3.28s4.49-1.13 5.95-3.28c1.45-2.13 2.22-5.11 2.22-8.6s-.77-6.47-2.22-8.6c-1.46-2.15-3.52-3.28-5.95-3.28z" clip-rule="evenodd"/>
	<path fill="#e95424" d="M43.63 15.45 38.61 0H22.36l5.02 15.45h16.25zM22.36 0H6.12L1.1 15.45h16.25L22.36 0zM1.1 15.45zm0 0c-2.99 9.21.29 19.31 8.12 25L14.24 25 1.1 15.45zm42.53 0L30.49 25l5.02 15.45c7.83-5.69 11.11-15.79 8.12-25zm-34.41 25L22.36 50l13.14-9.55-13.14-9.55-13.14 9.55z"/>
</svg>